<svg width="187" height="45" viewBox="0 0 187 45" fill="none" xmlns="http://www.w3.org/2000/svg">
<path fill-rule="evenodd" clip-rule="evenodd" d="M35.8953 44.8179L0 0H35.8953C48.0947 0 57.9845 10.0328 57.9845 22.409C57.9845 34.785 48.0947 44.8179 35.8953 44.8179ZM52.4621 22.409C52.4621 30.8365 46.3479 37.8153 38.3738 39.0288L31.7416 30.7476C32.6435 28.136 33.1341 25.329 33.1341 22.409C33.1341 15.9522 30.7413 10.0624 26.8063 5.60223H35.8953C45.045 5.60223 52.4621 13.1269 52.4621 22.409ZM27.6117 22.409C27.6117 23.4009 27.5392 24.375 27.3995 25.3264L11.6023 5.60223H18.2446C23.8576 9.03332 27.6117 15.2764 27.6117 22.409ZM75.8785 17.3382C75.8785 16.8579 75.6689 16.5079 75.2494 16.2882C74.221 15.7529 73.1048 15.4853 71.9008 15.4853C70.5071 15.4853 69.2558 15.801 68.1463 16.4324C67.0367 17.05 66.1641 17.9147 65.5283 19.0265C64.9058 20.1382 64.5947 21.3941 64.5947 22.7941C64.5947 24.3726 64.9261 25.7176 65.5892 26.8294C66.2522 27.9412 67.1382 28.7853 68.2477 29.3618C69.3573 29.9244 70.575 30.2059 71.9008 30.2059C73.0915 30.2059 74.2144 29.9382 75.2697 29.4029C75.4726 29.3069 75.6283 29.1696 75.7365 28.9912C75.8446 28.8127 75.8988 28.6137 75.8988 28.3941C75.8988 28.0921 75.7973 27.8108 75.5944 27.55C75.3508 27.248 75.0531 27.0971 74.7014 27.0971C74.5121 27.0971 74.2955 27.152 74.052 27.2618C73.4432 27.5774 72.7262 27.7353 71.9008 27.7353C70.5071 27.7353 69.3776 27.3167 68.5116 26.4794C67.6592 25.6421 67.233 24.4137 67.233 22.7941C67.233 21.8471 67.4223 21.0098 67.8013 20.2824C68.1802 19.5412 68.7212 18.9716 69.4248 18.5735C70.1285 18.1618 70.9536 17.9559 71.9008 17.9559C72.672 17.9559 73.3889 18.1137 74.052 18.4294C74.2819 18.5529 74.5121 18.6147 74.742 18.6147C75.0804 18.6147 75.3575 18.4706 75.5741 18.1824C75.777 17.9079 75.8785 17.6265 75.8785 17.3382ZM87.4861 19.1294C87.2559 18.8961 86.9651 18.7794 86.6135 18.7794C86.2615 18.7794 85.9707 18.9029 85.7408 19.15C85.5106 19.3833 85.3958 19.6784 85.3958 20.0353V20.0559C85.0032 19.6853 84.5231 19.3833 83.9549 19.15C83.3866 18.9029 82.7778 18.7794 82.1284 18.7794C81.2218 18.7794 80.3897 19.0265 79.6321 19.5206C78.8879 20.001 78.2994 20.6804 77.8665 21.5588C77.4334 22.4235 77.2171 23.4049 77.2171 24.5029C77.2171 25.601 77.4334 26.5824 77.8665 27.4471C78.313 28.3118 78.9149 28.9912 79.6727 29.4853C80.4303 29.9656 81.276 30.2059 82.2095 30.2059C82.8453 30.2059 83.4475 30.0685 84.0158 29.7941C84.5973 29.5059 85.0575 29.1627 85.3958 28.7647C85.4091 29.1216 85.5242 29.4168 85.7408 29.65C85.9707 29.8832 86.2615 30 86.6135 30C86.9651 30 87.2559 29.8832 87.4861 29.65C87.716 29.4029 87.8311 29.101 87.8311 28.7441V20.0353C87.8311 19.6647 87.716 19.3627 87.4861 19.1294ZM84.6652 26.9735C84.1103 27.6186 83.3933 27.9412 82.514 27.9412C81.6343 27.9412 80.9174 27.6186 80.3627 26.9735C79.8215 26.3147 79.551 25.4912 79.551 24.5029C79.551 23.5147 79.8281 22.6912 80.383 22.0324C80.9377 21.3735 81.648 21.0441 82.514 21.0441C83.3933 21.0441 84.1103 21.3735 84.6652 22.0324C85.2198 22.6912 85.4973 23.5147 85.4973 24.5029C85.4973 25.4912 85.2198 26.3147 84.6652 26.9735ZM92.7433 29.65C92.9868 29.4029 93.1086 29.101 93.1086 28.7441V16.0206C93.1086 15.6637 92.9935 15.3686 92.7636 15.1353C92.5337 14.8882 92.2496 14.7647 91.9112 14.7647C91.5595 14.7647 91.2618 14.8882 91.0183 15.1353C90.7884 15.3686 90.6733 15.6637 90.6733 16.0206V28.7441C90.6733 29.101 90.7884 29.4029 91.0183 29.65C91.2482 29.8832 91.5323 30 91.8706 30C92.2223 30 92.5134 29.8832 92.7433 29.65ZM111.242 20.0353C110.728 19.198 109.801 18.7794 108.462 18.7794C107.664 18.7794 106.947 19.0127 106.311 19.4794C105.689 19.9461 105.222 20.4676 104.91 21.0441C104.437 19.5343 103.348 18.7794 101.643 18.7794C100.953 18.7794 100.324 18.9579 99.7557 19.3147C99.201 19.6579 98.7409 20.0765 98.3756 20.5706V20.2412C98.3756 19.8843 98.2608 19.5892 98.0306 19.3559C97.8007 19.1088 97.5099 18.9853 97.158 18.9853C96.8063 18.9853 96.5155 19.1088 96.2853 19.3559C96.0554 19.5892 95.9403 19.8843 95.9403 20.2412V28.7441C95.9403 29.101 96.0554 29.4029 96.2853 29.65C96.5155 29.8832 96.8063 30 97.158 30C97.5099 30 97.8007 29.8832 98.0306 29.65C98.2608 29.4029 98.3756 29.101 98.3756 28.7441V23.4735C98.3756 22.7735 98.5855 22.1971 99.0048 21.7441C99.4379 21.2774 100.033 21.0441 100.791 21.0441C101.521 21.0441 102.029 21.2637 102.313 21.7029C102.611 22.1284 102.759 22.7186 102.759 23.4735V28.7441C102.759 29.101 102.874 29.4029 103.104 29.65C103.334 29.8832 103.625 30 103.977 30C104.329 30 104.62 29.8832 104.85 29.65C105.08 29.4029 105.195 29.101 105.195 28.7441V23.4735C105.195 22.7735 105.405 22.1971 105.824 21.7441C106.257 21.2774 106.852 21.0441 107.61 21.0441C108.34 21.0441 108.848 21.2637 109.132 21.7029C109.429 22.1284 109.578 22.7186 109.578 23.4735V28.7441C109.578 29.101 109.693 29.4029 109.923 29.65C110.153 29.8832 110.444 30 110.796 30C111.148 30 111.439 29.8832 111.669 29.65C111.899 29.4029 112.014 29.101 112.014 28.7441V23.4735C112.014 22.0049 111.757 20.8588 111.242 20.0353ZM129.896 16.5559C128.99 15.9108 127.9 15.5882 126.629 15.5882H121.778C121.426 15.5882 121.129 15.7118 120.885 15.9588C120.655 16.1921 120.54 16.4873 120.54 16.8441V28.7441C120.54 29.101 120.655 29.4029 120.885 29.65C121.129 29.8832 121.426 30 121.778 30H126.629C127.9 30 128.99 29.6844 129.896 29.0529C130.816 28.4079 131.513 27.5431 131.987 26.4588C132.474 25.3608 132.717 24.1392 132.717 22.7941C132.717 21.449 132.474 20.2343 131.987 19.15C131.513 18.052 130.816 17.1873 129.896 16.5559ZM129.166 26.2735C128.557 27.1794 127.644 27.6324 126.426 27.6324H123.077V17.9559H126.426C127.63 17.9559 128.537 18.4157 129.145 19.3353C129.768 20.2412 130.079 21.3941 130.079 22.7941C130.079 24.1941 129.775 25.3539 129.166 26.2735ZM141.502 19.1294C141.231 18.8961 140.893 18.7794 140.487 18.7794C139.824 18.7794 139.201 18.9304 138.62 19.2324C138.038 19.5206 137.591 19.9461 137.28 20.5088V20.2412C137.28 19.8843 137.165 19.5892 136.935 19.3559C136.705 19.1088 136.414 18.9853 136.063 18.9853C135.711 18.9853 135.42 19.1088 135.19 19.3559C134.96 19.5892 134.845 19.8843 134.845 20.2412V28.7441C134.845 29.101 134.96 29.4029 135.19 29.65C135.42 29.8832 135.711 30 136.063 30C136.414 30 136.705 29.8832 136.935 29.65C137.165 29.4029 137.28 29.101 137.28 28.7441V23.8647C137.28 23.2471 137.382 22.7186 137.585 22.2794C137.801 21.8265 138.072 21.4902 138.397 21.2706C138.721 21.051 139.059 20.9412 139.411 20.9412C139.574 20.9412 139.722 20.9618 139.858 21.0029C140.006 21.0441 140.101 21.0716 140.142 21.0853C140.399 21.1814 140.629 21.2294 140.832 21.2294C141.129 21.2294 141.386 21.1265 141.603 20.9206C141.819 20.701 141.928 20.3784 141.928 19.9529C141.928 19.6373 141.786 19.3627 141.502 19.1294ZM145.593 29.65C145.823 29.4029 145.938 29.101 145.938 28.7441V20.2412C145.938 19.8843 145.823 19.5892 145.593 19.3559C145.363 19.1088 145.072 18.9853 144.72 18.9853C144.368 18.9853 144.078 19.1088 143.847 19.3559C143.617 19.5892 143.502 19.8843 143.502 20.2412V28.7441C143.502 29.101 143.617 29.4029 143.847 29.65C144.078 29.8832 144.368 30 144.72 30C145.072 30 145.363 29.8832 145.593 29.65ZM143.726 17.4206C143.915 17.5716 144.24 17.6471 144.7 17.6471C145.173 17.6471 145.505 17.5784 145.694 17.4412C145.897 17.2902 145.999 17.0157 145.999 16.6176V16.2265C145.999 15.8421 145.904 15.5745 145.714 15.4235C145.525 15.2726 145.194 15.1971 144.72 15.1971C144.274 15.1971 143.949 15.2726 143.746 15.4235C143.543 15.5745 143.441 15.8421 143.441 16.2265V16.6176C143.441 17.002 143.536 17.2696 143.726 17.4206ZM157.593 19.3353C157.377 19.1157 157.106 19.0059 156.782 19.0059C156.552 18.9921 156.342 19.0539 156.153 19.1912C155.963 19.3284 155.814 19.5274 155.706 19.7882L152.926 26.2735L150.125 19.7676C150.017 19.5206 149.855 19.3284 149.638 19.1912C149.422 19.0539 149.185 18.9853 148.928 18.9853C148.59 18.9853 148.305 19.102 148.075 19.3353C147.845 19.5549 147.73 19.802 147.73 20.0765C147.73 20.2961 147.778 20.5157 147.872 20.7353L151.647 29.2176C151.756 29.4647 151.904 29.6638 152.094 29.8147C152.297 29.9521 152.513 30.0206 152.743 30.0206L152.926 30C153.156 29.9862 153.359 29.9109 153.535 29.7735C153.724 29.6362 153.866 29.4509 153.961 29.2176L157.756 20.7353C157.864 20.4882 157.918 20.2824 157.918 20.1176C157.918 19.802 157.81 19.5412 157.593 19.3353ZM161.785 29.65C162.015 29.4029 162.13 29.101 162.13 28.7441V20.2412C162.13 19.8843 162.015 19.5892 161.785 19.3559C161.555 19.1088 161.264 18.9853 160.912 18.9853C160.561 18.9853 160.269 19.1088 160.04 19.3559C159.809 19.5892 159.695 19.8843 159.695 20.2412V28.7441C159.695 29.101 159.809 29.4029 160.04 29.65C160.269 29.8832 160.561 30 160.912 30C161.264 30 161.555 29.8832 161.785 29.65ZM159.918 17.4206C160.107 17.5716 160.432 17.6471 160.892 17.6471C161.365 17.6471 161.697 17.5784 161.886 17.4412C162.089 17.2902 162.191 17.0157 162.191 16.6176V16.2265C162.191 15.8421 162.096 15.5745 161.907 15.4235C161.717 15.2726 161.386 15.1971 160.912 15.1971C160.466 15.1971 160.141 15.2726 159.938 15.4235C159.735 15.5745 159.634 15.8421 159.634 16.2265V16.6176C159.634 17.002 159.728 17.2696 159.918 17.4206ZM173.299 20.0353C172.771 19.198 171.817 18.7794 170.437 18.7794C169.733 18.7794 169.084 18.9579 168.489 19.3147C167.907 19.6716 167.433 20.0971 167.068 20.5912V20.2412C167.068 19.8843 166.953 19.5892 166.723 19.3559C166.493 19.1088 166.202 18.9853 165.85 18.9853C165.498 18.9853 165.208 19.1088 164.978 19.3559C164.748 19.5892 164.633 19.8843 164.633 20.2412V28.7441C164.633 29.101 164.748 29.4029 164.978 29.65C165.208 29.8832 165.498 30 165.85 30C166.202 30 166.493 29.8832 166.723 29.65C166.953 29.4029 167.068 29.101 167.068 28.7441V23.4735C167.068 22.7735 167.291 22.1971 167.738 21.7441C168.184 21.2774 168.8 21.0441 169.585 21.0441C170.342 21.0441 170.877 21.2637 171.188 21.7029C171.499 22.1284 171.655 22.7186 171.655 23.4735V28.7441C171.655 29.101 171.769 29.4029 172 29.65C172.23 29.8832 172.52 30 172.872 30C173.224 30 173.515 29.8832 173.745 29.65C173.975 29.4029 174.09 29.101 174.09 28.7441V23.4735C174.09 22.0049 173.826 20.8588 173.299 20.0353ZM186.585 19.1294C186.356 18.8961 186.064 18.7794 185.713 18.7794C185.361 18.7794 185.07 18.9029 184.84 19.15C184.61 19.3833 184.495 19.6784 184.495 20.0353V20.2618C184.13 19.85 183.649 19.5 183.054 19.2118C182.459 18.9235 181.816 18.7794 181.126 18.7794C180.193 18.7794 179.34 19.0265 178.569 19.5206C177.811 20.001 177.209 20.6804 176.763 21.5588C176.33 22.4235 176.113 23.4049 176.113 24.5029C176.113 25.601 176.337 26.5824 176.783 27.4471C177.23 28.3118 177.838 28.9912 178.61 29.4853C179.394 29.9656 180.26 30.2059 181.207 30.2059C181.897 30.2059 182.54 30.0344 183.135 29.6912C183.744 29.348 184.197 28.9637 184.495 28.5382V29.5265C184.495 30.2676 184.245 30.8374 183.744 31.2353C183.257 31.6471 182.513 31.8529 181.512 31.8529C181.011 31.8529 180.45 31.7294 179.827 31.4824C179.218 31.2491 178.887 31.1256 178.833 31.1118C178.711 31.0706 178.583 31.05 178.447 31.05C178.217 31.05 178.001 31.1256 177.798 31.2765C177.609 31.4412 177.473 31.6744 177.392 31.9765C177.351 32.1 177.331 32.2097 177.331 32.3059C177.331 32.8138 177.662 33.2118 178.326 33.5C178.623 33.6374 179.124 33.7744 179.827 33.9118C180.544 34.0491 181.106 34.1176 181.512 34.1176C183.081 34.1176 184.373 33.7126 185.388 32.9029C186.416 32.1068 186.93 30.8715 186.93 29.1971V20.0353C186.93 19.6647 186.815 19.3627 186.585 19.1294ZM183.724 26.9735C183.156 27.6186 182.418 27.9412 181.512 27.9412C180.605 27.9412 179.868 27.6186 179.3 26.9735C178.731 26.3147 178.447 25.4912 178.447 24.5029C178.447 23.5147 178.731 22.6912 179.3 22.0324C179.868 21.3735 180.605 21.0441 181.512 21.0441C182.418 21.0441 183.156 21.3735 183.724 22.0324C184.306 22.6912 184.597 23.5147 184.597 24.5029C184.597 25.4912 184.306 26.3147 183.724 26.9735Z" fill="#444444"/>
</svg>
