<svg width="160" height="60" viewBox="0 0 160 60" fill="none" xmlns="http://www.w3.org/2000/svg">
<path fill-rule="evenodd" clip-rule="evenodd" d="M34.8837 0H42.9338L29.8151 25.9187H39.3559L56.3507 59.4953H48.3005L21.3727 33.5766H0L34.8837 0ZM90.8536 16.8282C90.8536 17.3857 90.7444 17.9066 90.526 18.3907C90.3221 18.8749 90.0383 19.3003 89.6742 19.6672C89.3103 20.0194 88.8809 20.3055 88.3859 20.5254C87.9055 20.7309 87.3886 20.8337 86.8354 20.8337C86.2822 20.8337 85.7581 20.7309 85.2631 20.5254C84.7827 20.3055 84.3606 20.0194 83.9967 19.6672C83.6473 19.3003 83.3633 18.8749 83.1449 18.3907C82.9412 17.9066 82.8393 17.3857 82.8393 16.8282C82.8393 16.2853 82.9412 15.7718 83.1449 15.2876C83.3633 14.7888 83.6473 14.3633 83.9967 14.0112C84.3606 13.6444 84.7827 13.3583 85.2631 13.1529C85.7581 12.9328 86.2822 12.8228 86.8354 12.8228C87.3886 12.8228 87.9055 12.9328 88.3859 13.1529C88.8809 13.3583 89.3103 13.6444 89.6742 14.0112C90.0383 14.3633 90.3221 14.7888 90.526 15.2876C90.7444 15.7718 90.8536 16.2853 90.8536 16.8282ZM89.8272 46.8028H83.822V23.2324H89.8272V46.8028ZM81.1795 46.8028H59.2549V15.2436H65.5222V40.4867H81.1795V46.8028ZM94.3911 46.8028H100.353V33.3341C100.353 32.7178 100.469 32.1383 100.702 31.5954C100.935 31.038 101.255 30.5537 101.663 30.1429C102.071 29.7321 102.551 29.4094 103.104 29.1746C103.657 28.9399 104.247 28.8225 104.873 28.8225C105.484 28.8225 106.06 28.9399 106.598 29.1746C107.137 29.4094 107.61 29.7321 108.018 30.1429C108.425 30.5537 108.745 31.038 108.978 31.5954C109.211 32.1383 109.328 32.7178 109.328 33.3341V46.8028H115.289V33.3341C115.289 31.8816 115.013 30.5171 114.46 29.2406C113.921 27.9495 113.178 26.8271 112.232 25.8735C111.286 24.9051 110.18 24.1494 108.913 23.6066C107.646 23.049 106.3 22.7704 104.873 22.7704C103.548 22.7704 102.274 23.0124 101.052 23.4966C99.8432 23.9661 98.7585 24.6411 97.7978 25.5214L95.8324 23.2324H94.3911V46.8028ZM130.969 46.8028C129.527 46.8028 128.173 46.5315 126.907 45.9887C125.64 45.4311 124.527 44.6754 123.566 43.7218C122.619 42.7534 121.87 41.631 121.316 40.3545C120.778 39.0782 120.508 37.7136 120.508 36.2612V29.2626H117.604V23.2764H120.508V13.8571H126.448V23.2764H135.489V29.2626H126.448V36.2612C126.448 36.8919 126.565 37.4863 126.798 38.0438C127.031 38.5866 127.351 39.0634 127.759 39.4742C128.166 39.885 128.647 40.2152 129.2 40.4646C129.753 40.6993 130.343 40.8167 130.969 40.8167H135.489V46.8028H130.969ZM154.487 45.3064C155.041 44.9102 155.557 44.4921 156.038 44.052L158.003 46.8028H159.444V23.2324H153.483V36.2612C153.483 36.8919 153.366 37.5082 153.133 38.1097C152.9 38.6966 152.58 39.2248 152.172 39.6943C151.765 40.1638 151.284 40.5454 150.731 40.8388C150.193 41.1174 149.617 41.2569 149.006 41.2569C148.38 41.2569 147.791 41.1469 147.237 40.9268C146.699 40.7066 146.225 40.3839 145.818 39.9585C145.41 39.5329 145.083 39.0122 144.835 38.3959C144.602 37.7649 144.486 37.0534 144.486 36.2612V23.2324H138.546V36.2612C138.546 37.9483 138.815 39.4742 139.354 40.8388C139.907 42.1886 140.657 43.3403 141.603 44.2941C142.564 45.2331 143.678 45.9593 144.944 46.4728C146.211 46.9864 147.565 47.2431 149.006 47.2431C149.661 47.2431 150.302 47.1549 150.928 46.9789C151.568 46.8176 152.187 46.5975 152.784 46.3187C153.381 46.0252 153.949 45.6878 154.487 45.3064Z" fill="#444444"/>
</svg>
