<svg width="161" height="60" viewBox="0 0 161 60" fill="none" xmlns="http://www.w3.org/2000/svg">
<path fill-rule="evenodd" clip-rule="evenodd" d="M34.9809 0H43.0534L29.8981 25.9187H39.4655L56.5077 59.4953H48.435L21.4322 33.5766H0L34.9809 0ZM91.1067 16.8282C91.1067 17.3857 90.9971 17.9066 90.7781 18.3907C90.5736 18.8749 90.2891 19.3003 89.924 19.6672C89.5591 20.0194 89.1285 20.3055 88.6321 20.5254C88.1504 20.7309 87.6321 20.8337 87.0772 20.8337C86.5226 20.8337 85.997 20.7309 85.5006 20.5254C85.0189 20.3055 84.5956 20.0194 84.2306 19.6672C83.8803 19.3003 83.5956 18.8749 83.3765 18.3907C83.1722 17.9066 83.07 17.3857 83.07 16.8282C83.07 16.2853 83.1722 15.7718 83.3765 15.2876C83.5956 14.7888 83.8803 14.3633 84.2306 14.0112C84.5956 13.6444 85.0189 13.3583 85.5006 13.1529C85.997 12.9328 86.5226 12.8228 87.0772 12.8228C87.6321 12.8228 88.1504 12.9328 88.6321 13.1529C89.1285 13.3583 89.5591 13.6444 89.924 14.0112C90.2891 14.3633 90.5736 14.7888 90.7781 15.2876C90.9971 15.7718 91.1067 16.2853 91.1067 16.8282ZM90.0774 46.8028H84.0554V23.2324H90.0774V46.8028ZM81.4057 46.8028H59.4199V15.2436H65.7048V40.4867H81.4057V46.8028ZM94.654 46.8028H100.632V33.3341C100.632 32.7178 100.749 32.1383 100.983 31.5954C101.216 31.038 101.537 30.5537 101.946 30.1429C102.355 29.7321 102.837 29.4094 103.391 29.1746C103.946 28.9399 104.537 28.8225 105.165 28.8225C105.778 28.8225 106.355 28.9399 106.895 29.1746C107.435 29.4094 107.91 29.7321 108.319 30.1429C108.727 30.5537 109.048 31.038 109.282 31.5954C109.516 32.1383 109.632 32.7178 109.632 33.3341V46.8028H115.61V33.3341C115.61 31.8816 115.333 30.5171 114.778 29.2406C114.238 27.9495 113.494 26.8271 112.545 25.8735C111.596 24.9051 110.486 24.1494 109.216 23.6066C107.946 23.049 106.596 22.7704 105.165 22.7704C103.837 22.7704 102.559 23.0124 101.333 23.4966C100.121 23.9661 99.0336 24.6411 98.0702 25.5214L96.0993 23.2324H94.654V46.8028ZM131.333 46.8028C129.888 46.8028 128.53 46.5315 127.26 45.9887C125.99 45.4311 124.873 44.6754 123.91 43.7218C122.961 42.7534 122.209 41.631 121.654 40.3545C121.114 39.0782 120.844 37.7136 120.844 36.2612V29.2626H117.932V23.2764H120.844V13.8571H126.8V23.2764H135.866V29.2626H126.8V36.2612C126.8 36.8919 126.917 37.4863 127.151 38.0438C127.384 38.5866 127.706 39.0634 128.114 39.4742C128.523 39.885 129.005 40.2152 129.56 40.4646C130.114 40.6993 130.706 40.8167 131.333 40.8167H135.866V46.8028H131.333ZM154.918 45.3064C155.472 44.9102 155.991 44.4921 156.472 44.052L158.443 46.8028H159.888V23.2324H153.91V36.2612C153.91 36.8919 153.794 37.5082 153.56 38.1097C153.326 38.6966 153.005 39.2248 152.596 39.6943C152.188 40.1638 151.706 40.5454 151.151 40.8388C150.611 41.1174 150.034 41.2569 149.421 41.2569C148.793 41.2569 148.202 41.1469 147.648 40.9268C147.107 40.7066 146.633 40.3839 146.224 39.9585C145.815 39.5329 145.487 39.0122 145.239 38.3959C145.005 37.7649 144.888 37.0534 144.888 36.2612V23.2324H138.932V36.2612C138.932 37.9483 139.202 39.4742 139.742 40.8388C140.297 42.1886 141.049 43.3403 141.998 44.2941C142.961 45.2331 144.078 45.9592 145.348 46.4728C146.618 46.9864 147.976 47.2431 149.421 47.2431C150.078 47.2431 150.72 47.1549 151.348 46.9789C151.991 46.8176 152.611 46.5975 153.21 46.3187C153.808 46.0252 154.377 45.6878 154.918 45.3064Z" fill="white"/>
</svg>
