<svg width="127" height="68" viewBox="0 0 127 68" fill="none" xmlns="http://www.w3.org/2000/svg">
<path fill-rule="evenodd" clip-rule="evenodd" d="M102.475 4.16578C102.475 3.81773 102.271 3.49954 101.949 3.34389L95.6117 0.280823C95.344 0.151472 95.0291 0.151472 94.7614 0.280823L63.5 15.3907L32.2385 0.28082C31.9709 0.15147 31.6559 0.15147 31.3883 0.28082L25.0509 3.34388C24.7289 3.49954 24.5255 3.81773 24.5255 4.16578V34.7964C24.5255 35.1445 24.7289 35.4627 25.0509 35.6183L31.3883 38.6814C31.6559 38.8107 31.9709 38.8107 32.2385 38.6814L57.1626 26.6346L63.0749 29.4922C63.3426 29.6216 63.6575 29.6216 63.9251 29.4922L69.8375 26.6346L94.7614 38.6814C95.0291 38.8107 95.344 38.8107 95.6117 38.6814L101.949 35.6183C102.271 35.4627 102.475 35.1445 102.475 34.7964V4.16578ZM50.8255 23.5715L55.0371 25.6072L31.8134 36.8321L27.6017 34.7964L50.8255 23.5715ZM48.6996 22.5442L26.4267 33.3096V4.73371L30.8628 2.58957V25.6072C30.8628 25.9257 31.0334 26.2215 31.3136 26.3889C31.5939 26.5563 31.9439 26.5716 32.2385 26.4291L44.4881 20.5085L48.6996 22.5442ZM32.764 24.1204V2.58957L63.0749 17.2399C63.3426 17.3693 63.6575 17.3693 63.9251 17.2399L94.2359 2.58957V24.1204L89.8001 21.9763V16.4365C89.8001 16.4291 89.8001 16.4217 89.8001 16.4142C89.8001 16.4088 89.8001 16.4035 89.8001 16.3981V10.2919C89.8001 9.97345 89.6293 9.67767 89.3491 9.51025C89.0689 9.34282 88.719 9.3276 88.4244 9.47L63.5 21.5168L38.5757 9.47C38.281 9.32757 37.9312 9.34282 37.651 9.51025C37.3707 9.67767 37.2001 9.97345 37.2001 10.2919V16.3981C37.1999 16.4109 37.1999 16.4238 37.2001 16.4366V21.9763L32.764 24.1204ZM96.1371 25.6072V2.58957L100.573 4.73371V33.3096L78.3001 22.5442L82.512 20.5085L94.7614 26.4291C95.0561 26.5716 95.4063 26.5563 95.6866 26.3889C95.9668 26.2215 96.1371 25.9257 96.1371 25.6072ZM76.1746 23.5715L99.3985 34.7964L95.1865 36.8321L71.963 25.6072L76.1746 23.5715ZM87.8989 15.8501L82.0869 18.6592L63.5 27.6429L44.9139 18.6596L44.9132 18.6592L39.1012 15.8501V11.7788L63.0749 23.3661C63.3426 23.4954 63.6575 23.4954 63.9251 23.3661L87.8989 11.7788V15.8501ZM42.3625 19.4811L39.1012 17.9049V21.0573L42.3625 19.4811ZM84.6376 19.4811L87.8989 17.9049V21.0573L84.6376 19.4811ZM0.30249 63.2216V47.1825H2.05246L8.07203 61.1541H8.21786L14.2374 47.1825H15.9874V63.2216H14.5615V50.2759H14.4318L8.83358 63.2216H7.45627L1.85802 50.2759H1.72839V63.2216H0.30249ZM27.431 61.3184C26.9125 62.3836 25.6486 63.4959 23.5746 63.4959C21.3142 63.4959 19.4833 62.18 19.4833 59.8617C19.4833 57.481 21.452 56.7212 24.2632 56.3845C24.4998 56.3562 24.7246 56.3309 24.9371 56.307C26.6026 56.1191 27.5201 56.0155 27.5201 55.2098V54.9279C27.5201 53.2834 26.475 52.2806 24.5873 52.2806C22.7887 52.2806 21.6626 53.1657 21.2089 54.1997L19.8397 53.7219C20.6823 51.7561 22.6429 51.0276 24.5468 51.0276C26.4507 51.0276 28.9622 51.8267 28.9622 55.0532V63.2216H27.5201V61.3184H27.431ZM20.9253 59.9246C20.9253 61.3812 22.1406 62.2193 23.769 62.2193C26.0699 62.2193 27.5201 60.5825 27.5201 58.6087V56.8701C27.0988 57.2696 25.2841 57.4887 24.2632 57.6063C22.1568 57.857 20.9253 58.4679 20.9253 59.9246ZM34.2405 63.2216H32.7984V47.1825H34.2405V56.8546H34.4187L40.2518 51.1923H42.0747L36.752 56.3456L42.399 63.2216H40.5518L35.6745 57.2619L34.2405 58.5616V63.2216ZM46.2512 63.2216H44.801V51.1923H46.2512V63.2216ZM46.6239 48.122C46.6239 48.6704 46.1296 49.1247 45.5383 49.1247C44.947 49.1247 44.4607 48.6704 44.4607 48.122C44.4607 47.5739 44.947 47.1196 45.5383 47.1196C46.1296 47.1196 46.6239 47.5739 46.6239 48.122ZM54.8937 52.3122C52.9332 52.3122 51.5073 53.6042 51.5073 55.7031V63.2216H50.065V51.1923H51.4666V53.0797H51.5963C52.1796 51.8502 53.4355 51.0357 55.2584 51.0357C57.7698 51.0357 59.4794 52.5784 59.4794 55.4292V63.2216H58.0371V55.5152C58.0371 53.5495 56.8055 52.3122 54.8937 52.3122ZM73.1612 63.5348C73.1612 66.5893 70.9737 67.9835 68.0245 67.9835C65.4807 67.9835 63.8928 66.9495 63.1635 65.5711L64.3465 64.8195C64.8731 65.7358 65.8937 66.7301 68.0245 66.7301C70.2284 66.7301 71.7109 65.6888 71.7109 63.4488V60.7391H71.5813C71.087 61.8433 69.9934 63.0963 67.7572 63.0963C64.7757 63.0963 62.6369 60.8644 62.6369 57.1755C62.6369 53.5182 64.7027 51.0276 67.7815 51.0276C70.066 51.0276 71.0949 52.406 71.6056 53.487H71.7512V51.1923H73.1612V63.5348ZM64.0871 57.152C64.0871 59.9088 65.4564 61.8197 67.9272 61.8197C70.3253 61.8197 71.7353 60.0576 71.7353 57.152C71.7353 54.3328 70.366 52.2964 67.9272 52.2964C65.432 52.2964 64.0871 54.4423 64.0871 57.152ZM85.6638 51.1923H88.297V52.406H85.6638V60.0811C85.6638 61.5926 86.5631 62.0392 87.5437 62.0392C87.9243 62.0392 88.1837 61.9844 88.386 61.9293L88.694 63.1904C88.4187 63.2922 88.0133 63.4018 87.4141 63.4018C85.8178 63.4018 84.2136 62.3759 84.2136 60.4101V52.406H82.3584V51.1923H84.2136V48.3102H85.6638V51.1923ZM101.209 60.6527C100.642 62.1645 98.965 63.4723 96.4695 63.4723C92.9857 63.4723 90.7986 60.9269 90.7986 57.2773C90.7986 53.6355 93.0264 51.0276 96.2508 51.0276C98.9486 51.0276 101.517 52.9151 101.517 56.9329V57.6221H92.2484C92.3135 60.4024 93.9257 62.1958 96.4695 62.1958C98.2357 62.1958 99.362 61.3029 99.8399 60.2223L101.209 60.6527ZM96.2508 52.2964C93.9743 52.2964 92.4108 54.1527 92.2568 56.3922H100.043C100.043 54.0744 98.4787 52.2964 96.2508 52.2964ZM114.303 59.7132C113.971 61.8903 112.148 63.4723 109.556 63.4723C106.21 63.4723 104.055 60.8486 104.055 57.2619C104.055 53.6436 106.275 51.0276 109.531 51.0276C112.027 51.0276 113.955 52.5313 114.295 54.7635H112.837C112.529 53.4006 111.33 52.2964 109.556 52.2964C107.166 52.2964 105.505 54.3015 105.505 57.2149C105.505 60.1436 107.117 62.1958 109.556 62.1958C111.209 62.1958 112.513 61.2482 112.845 59.7132H114.303ZM122.288 52.3122C120.295 52.3122 118.836 53.6042 118.836 55.7031V63.2216H117.394V47.1825H118.836V53.0797H118.966C119.549 51.8344 120.772 51.0357 122.652 51.0357C125.18 51.0357 126.897 52.5626 126.897 55.4292V63.2216H125.448V55.5152C125.448 53.5337 124.216 52.3122 122.288 52.3122Z" fill="#444444"/>
</svg>
