<svg width="174" height="42" viewBox="0 0 174 42" fill="none" xmlns="http://www.w3.org/2000/svg">
<path fill-rule="evenodd" clip-rule="evenodd" d="M57.983 16.5275C48.4965 5.69464 38.8846 0.131241 29.1415 0.131241C19.3983 0.131241 9.78646 5.69464 0.299839 16.5275C0.197398 16.6445 0.141479 16.7906 0.141479 16.9413V25.0183C0.141479 25.169 0.197398 25.3151 0.299839 25.4321C9.78646 36.2649 19.3983 41.8283 29.1415 41.8283C38.8846 41.8283 48.4965 36.2649 57.983 25.4321C58.0855 25.3151 58.1415 25.169 58.1415 25.0183V16.9413C58.1415 16.7906 58.0855 16.6445 57.983 16.5275ZM6.81202 25.412L1.55611 18.9101V24.7848C10.8771 35.3684 20.0742 40.5158 29.1415 40.5158C38.1468 40.5158 47.2802 35.4385 56.5359 25.0008L50.3502 17.3486C43.1667 9.35549 35.915 5.4822 28.5974 5.4822C21.4073 5.4822 13.937 9.22054 6.18276 16.9237L9.48123 19.984C15.8982 12.2436 22.4468 8.20815 29.1415 8.20815C35.9971 8.20815 42.6996 12.44 49.2644 20.5486L53.5815 24.5542C53.8495 24.8027 53.8588 25.2027 53.6028 25.4617C45.5617 33.6005 37.588 37.79 29.6855 37.79C21.7725 37.79 14.1565 33.5905 6.83451 25.4384C6.82676 25.4298 6.81926 25.421 6.81202 25.412ZM56.7268 17.1748V23.0495L51.4709 16.5476C51.4636 16.5386 51.4562 16.5298 51.4486 16.5212C44.1264 8.36917 36.5106 4.1697 28.5974 4.1697C20.695 4.1697 12.7212 8.35914 4.68011 16.4979C4.42423 16.7569 4.43359 17.1569 4.70135 17.4054L9.01865 21.411C15.5834 29.5197 22.2858 33.7514 29.1415 33.7514C35.8361 33.7514 42.3847 29.716 48.8018 21.9756L52.1001 25.0359C44.346 32.739 36.8756 36.4775 29.6855 36.4775C22.3681 36.4775 15.1161 32.6041 7.93283 24.611L1.74705 16.9588C11.0027 6.52104 20.1362 1.44374 29.1415 1.44374C38.2087 1.44374 47.4058 6.5911 56.7268 17.1748ZM29.1415 32.4389C23.0517 32.4389 16.8133 28.7324 10.441 20.9798C16.8133 13.2273 23.0517 9.52065 29.1415 9.52065C35.2312 9.52065 41.4697 13.2273 47.8418 20.9798C41.4697 28.7324 35.2312 32.4389 29.1415 32.4389ZM75.7565 14.4585C72.4067 14.4585 69.849 16.8105 69.849 20.9895C69.849 25.1685 72.4067 27.5415 75.7565 27.5415C79.1064 27.5415 81.664 25.1685 81.664 20.9895C81.664 16.8105 79.1064 14.4585 75.7565 14.4585ZM75.7565 13.1145C80.3965 13.1145 83.271 16.3485 83.271 20.9895C83.271 25.6305 80.3965 28.8855 75.7565 28.8855C71.1165 28.8855 68.242 25.6305 68.242 20.9895C68.242 16.3485 71.1165 13.1145 75.7565 13.1145ZM85.8771 17.3145H87.2804V19.2255C87.8915 18.1545 89.0459 17.1255 91.3319 17.1255C94.2064 17.1255 95.4287 18.7215 95.4287 21.4935V28.6125H94.0254V21.8505C94.0254 19.7295 93.4143 18.3015 90.9698 18.3015C88.8648 18.3015 87.2804 19.9395 87.2804 22.3335V28.6125H85.8771V17.3145ZM108.526 25.2315C107.915 27.5835 105.946 28.8855 103.252 28.8855C99.6989 28.8855 97.5034 26.5125 97.5034 23.0055C97.5034 19.3725 99.9479 17.1255 103.207 17.1255C106.625 17.1255 108.82 19.8135 108.639 23.3415H98.952C99.0199 26.0925 100.853 27.6885 103.343 27.6885C105.244 27.6885 106.58 26.8065 107.055 25.2315H108.526ZM107.1 22.1445C107.1 20.2335 105.629 18.3015 103.185 18.3015C100.921 18.3015 99.2915 19.6245 98.9972 22.1445H107.1ZM117.798 14.4585C114.448 14.4585 111.89 16.8105 111.89 20.9895C111.89 25.1685 114.448 27.5415 117.798 27.5415C121.148 27.5415 123.705 25.1685 123.705 20.9895C123.705 16.8105 121.148 14.4585 117.798 14.4585ZM117.798 13.1145C122.438 13.1145 125.312 16.3485 125.312 20.9895C125.312 25.6305 122.438 28.8855 117.798 28.8855C113.158 28.8855 110.283 25.6305 110.283 20.9895C110.283 16.3485 113.158 13.1145 117.798 13.1145ZM133.147 18.3015C131.313 18.3015 129.231 19.6455 129.231 23.0055C129.231 26.3655 131.313 27.7095 133.147 27.7095C135.41 27.7095 137.017 26.0085 137.017 23.0055C137.017 20.0025 135.41 18.3015 133.147 18.3015ZM133.441 17.1255C136.248 17.1255 138.534 19.2465 138.534 23.0055C138.534 26.7645 136.248 28.8855 133.441 28.8855C131.63 28.8855 130.204 28.1085 129.322 26.7435V32.2875H127.918V17.3145H129.322V19.2465C130.204 17.9025 131.63 17.1255 133.441 17.1255ZM139.511 17.3145H141.525V14.7735H142.951V17.3145H145.351V18.4485H142.951V25.6725C142.951 27.1215 142.997 27.4365 144.626 27.4365H145.351V28.6125H144.196C142.023 28.6125 141.525 28.1715 141.525 25.9245V18.4485H139.511V17.3145ZM147.767 28.6125V17.3145H149.171V28.6125H147.767ZM147.767 15.4665V13.3875H149.171V15.4665H147.767ZM151.613 23.0055C151.613 19.4985 153.65 17.1255 157.204 17.1255C159.988 17.1255 161.844 18.9315 162.206 20.9475H160.735C160.282 19.2465 158.856 18.3225 157.068 18.3225C154.986 18.3225 153.107 19.8765 153.107 22.9845C153.107 26.1975 154.986 27.6885 157.091 27.6885C159.173 27.6885 160.463 26.4495 160.825 25.0425H162.319C161.844 27.3735 159.784 28.8855 157.091 28.8855C153.65 28.8855 151.613 26.4705 151.613 23.0055ZM168.884 17.1045C171.509 17.1045 173.275 18.6165 173.569 20.4015H172.098C171.803 19.0575 170.468 18.2595 168.748 18.2595C167.412 18.2595 165.647 18.7425 165.647 20.1075C165.647 21.2205 166.575 21.8085 167.933 22.0395L169.653 22.3335C171.645 22.6695 173.863 23.2995 173.863 25.4415C173.863 27.6885 171.668 28.8855 169.019 28.8855C166.507 28.8855 164.334 27.7305 163.972 25.1475H165.443C165.692 26.9115 167.277 27.7305 169.133 27.7305C170.604 27.7305 172.437 27.1635 172.437 25.6515C172.437 24.3285 171.079 23.8665 169.427 23.5725L167.526 23.2365C165.783 22.9005 164.221 21.9975 164.221 20.2125C164.221 18.4275 166.145 17.1045 168.884 17.1045Z" fill="#444444"/>
</svg>
