<svg width="31" height="26" viewBox="0 0 31 26" fill="none" xmlns="http://www.w3.org/2000/svg">
<path d="M30.8806 3.52873C29.7673 4.02207 28.5713 4.3554 27.314 4.50607C28.6113 3.72979 29.5819 2.50802 30.0446 1.06873C28.8258 1.79272 27.4918 2.30233 26.1006 2.5754C25.1651 1.57655 23.926 0.914501 22.5757 0.692032C21.2254 0.469562 19.8394 0.699122 18.6329 1.34507C17.4265 1.99102 16.467 3.01722 15.9035 4.26434C15.34 5.51146 15.204 6.90973 15.5166 8.24207C13.0469 8.11806 10.6308 7.47613 8.42519 6.35794C6.21958 5.23975 4.27375 3.67028 2.71396 1.7514C2.18062 2.6714 1.87396 3.73807 1.87396 4.87407C1.87336 5.89673 2.1252 6.90372 2.60713 7.80571C3.08906 8.7077 3.78617 9.47678 4.63662 10.0447C3.65033 10.0133 2.68579 9.74684 1.82329 9.2674V9.3474C1.82319 10.7817 2.31933 12.1719 3.22753 13.2821C4.13573 14.3922 5.40005 15.154 6.80596 15.4381C5.891 15.6857 4.93174 15.7222 4.00062 15.5447C4.39729 16.7789 5.16995 17.8581 6.21045 18.6313C7.25094 19.4045 8.50718 19.833 9.80329 19.8567C7.60307 21.584 4.88581 22.5209 2.08862 22.5167C1.59313 22.5169 1.09806 22.4879 0.605957 22.4301C3.44526 24.2556 6.75041 25.2245 10.126 25.2207C21.5526 25.2207 27.7993 15.7567 27.7993 7.54873C27.7993 7.28207 27.7926 7.01273 27.7806 6.74607C28.9957 5.86737 30.0445 4.77926 30.878 3.53273L30.8806 3.52873Z" fill="white"/>
</svg>
