<svg width="33" height="20" viewBox="0 0 33 20" fill="none" xmlns="http://www.w3.org/2000/svg">
<path fill-rule="evenodd" clip-rule="evenodd" d="M31.4449 1.87667C31.6662 1.14867 31.4449 0.612671 30.3849 0.612671H26.8849C25.9942 0.612671 25.5836 1.07534 25.3609 1.586C25.3609 1.586 23.5809 5.84734 21.0596 8.61534C20.2436 9.418 19.8729 9.67267 19.4276 9.67267C19.2049 9.67267 18.8702 9.418 18.8702 8.68867V1.87667C18.8702 1.002 18.6249 0.612671 17.8836 0.612671H12.3796C11.8236 0.612671 11.4889 1.018 11.4889 1.40334C11.4889 2.23134 12.7502 2.42334 12.8796 4.754V9.818C12.8796 10.9287 12.6756 11.13 12.2302 11.13C11.0436 11.13 8.15689 6.84867 6.44356 1.95C6.11156 0.996671 5.77556 0.612671 4.88089 0.612671H1.37822C0.378223 0.612671 0.178223 1.07534 0.178223 1.586C0.178223 2.49534 1.36489 7.01267 5.70489 12.9873C8.59822 17.0673 12.6716 19.2793 16.3822 19.2793C18.6076 19.2793 18.8822 18.7887 18.8822 17.942V14.858C18.8822 13.8753 19.0929 13.6793 19.7982 13.6793C20.3182 13.6793 21.2076 13.9353 23.2849 15.902C25.6582 18.234 26.0489 19.2793 27.3849 19.2793H30.8849C31.8849 19.2793 32.3862 18.7887 32.0982 17.818C31.7809 16.8527 30.6476 15.4513 29.1449 13.7887C28.3289 12.842 27.1049 11.822 26.7329 11.3113C26.2142 10.6567 26.3622 10.3647 26.7329 9.782C26.7329 9.782 30.9996 3.88067 31.4436 1.87667H31.4449Z" fill="white"/>
</svg>
